<svg height="512" viewBox="0 0 64 64" width="512" xmlns="http://www.w3.org/2000/svg"><g id="Fill_Outline" data-name="Fill Outline"><path d="m6 14h52v30h-52z" fill="#80e1b8"/><path d="m13 22v-8h-7v30h52v-8h-31a14 14 0 0 1 -14-14z" fill="#3aba80"/><path d="m3 44h58v4h-58z" fill="#f06e7a"/><path d="m43 38h10v6h-10z" fill="#a7325c"/><path d="m43 38h4v6h-4z" fill="#68cbf2"/><path d="m47 38h6v3h-6z" fill="#f06e7a"/><path d="m44 38h3a0 0 0 0 1 0 0v3a0 0 0 0 1 0 0 3 3 0 0 1 -3-3 0 0 0 0 1 0 0z" fill="#92e5eb"/><path d="m8 44h53a0 0 0 0 1 0 0v2a0 0 0 0 1 0 0h-51a2 2 0 0 1 -2-2 0 0 0 0 1 0 0z" fill="#ffc569"/><g fill="#2f2f31"><path d="m6 38a1 1 0 0 0 1-1v-22h50v3a1 1 0 0 0 2 0v-4a1 1 0 0 0 -1-1h-52a1 1 0 0 0 -1 1v23a1 1 0 0 0 1 1z"/><path d="m61 47h-57v-2h57a1 1 0 0 0 0-2h-2v-21a1 1 0 0 0 -2 0v21h-3v-5a1 1 0 0 0 -1-1h-10a1 1 0 0 0 -1 1v5h-2v-3a1 1 0 0 0 -.6-.915l.37-.444a1 1 0 1 0 -1.536-1.282l-4.703 5.641h-26.531v-2a1 1 0 0 0 -2 0v2h-2a1 1 0 0 0 -1 1v4a1 1 0 0 0 1 1h58a1 1 0 0 0 0-2zm-9-4h-4v-4h4zm-8-4h2v4h-2zm-6 1.762v2.238h-1.865z"/><path d="m45 26h-2a1 1 0 0 0 0 2h2a1 1 0 0 0 0-2z"/><path d="m45 30h-2a1 1 0 0 0 0 2h2a1 1 0 0 0 0-2z"/><path d="m38 30a1 1 0 0 0 1-1v-4a1 1 0 0 0 -1-1h-4a1 1 0 0 0 0 2h3v2h-3a1 1 0 0 0 -1 1v4a1 1 0 0 0 1 1h4a1 1 0 0 0 0-2h-3v-2z"/><path d="m28 32a1 1 0 0 0 1-1v-1h1a1 1 0 0 0 0-2h-1v-1a1 1 0 0 0 -2 0v1h-1a1 1 0 0 0 0 2h1v1a1 1 0 0 0 1 1z"/><path d="m24.6 24.2a1 1 0 0 0 -1.4.2l-2.2 2.934-2.2-2.934a1 1 0 0 0 -1.6 1.2l2.55 3.4-2.55 3.4a1 1 0 1 0 1.6 1.2l2.2-2.934 2.2 2.934a1 1 0 0 0 1.6-1.2l-2.55-3.4 2.55-3.4a1 1 0 0 0 -.2-1.4z"/><path d="m38 20h-23a1 1 0 0 0 -.97.758l-2.344 9.377-.786-1.582a1 1 0 0 0 -1.79.894l2 4a1 1 0 0 0 1.865-.205l2.806-11.242h22.219a1 1 0 0 0 0-2z"/><path d="m53 26a1 1 0 0 0 0-2h-4a1 1 0 0 0 -1 1v8a1 1 0 0 0 1 1h4a1 1 0 0 0 1-1v-4a1 1 0 0 0 -1-1h-3v-2zm-1 6h-2v-2h2z"/></g></g></svg>